# xmcd
#
# Track frame offsets: 
#        150
#        3850
#        29310
#        42527
#        61860
#        74525
#        85817
#        101147
#        114622
#        129932
#        140900
#        150652
#
# Disc length: 2321 seconds
#
# Revision: 1
# Processed by: cddbd v1.5.2PL0 Copyright (c) Steve Scherf et al.
# Submitted via: ExactAudioCopy v1.0b3
#
DISCID=a2090f0c
DTITLE=Rocky Hill - Texas Shuffle
DYEAR=2003
DGENRE=Blues
TTITLE0=Rock n' Roll
TTITLE1=Hootchie Cootchie Man
TTITLE2=Future Blues
TTITLE3=Fool For You
TTITLE4=Bad Girl Blues
TTITLE5=Blood Stream
TTITLE6=My Guitar
TTITLE7=Gimme the Gun
TTITLE8=Young Man
TTITLE9=Yes Indeed
TTITLE10=Preaching Blues
TTITLE11=Red Rooster Jam
EXTD=Tomato is a registered Trademark of The EGGE Company Limited
EXTT0=
EXTT1=
EXTT2=
EXTT3=
EXTT4=
EXTT5=
EXTT6=
EXTT7=
EXTT8=
EXTT9=
EXTT10=
EXTT11=
PLAYORDER=
